<?xml version="1.0" encoding="UTF-8"?>
<!DOCTYPE svg PUBLIC "-//W3C//DTD SVG 1.1//EN" "http://www.w3.org/Graphics/SVG/1.1/DTD/svg11.dtd">
<!-- Creator: CorelDRAW 2020 (64-Bit) -->
<svg xmlns="http://www.w3.org/2000/svg" xml:space="preserve" width="0.106661in" height="0.106661in" version="1.1" style="shape-rendering:geometricPrecision; text-rendering:geometricPrecision; image-rendering:optimizeQuality; fill-rule:evenodd; clip-rule:evenodd"
viewBox="0 0 106.66 106.66"
 xmlns:xlink="http://www.w3.org/1999/xlink"
 xmlns:xodm="http://www.corel.com/coreldraw/odm/2003">
 <defs>
  <style type="text/css">
   <![CDATA[
    .fil1 {fill:#009FDB}
    .fil0 {fill:white}
   ]]>
  </style>
 </defs>
 <g id="Layer_x0020_1">
  <metadata id="CorelCorpID_0Corel-Layer"/>
  <g id="_1076531296">
   <circle class="fil0" cx="53.33" cy="53.33" r="48.41"/>
   <g>
    <path class="fil1" d="M78.09 11.74c-7.26,-4.35 -15.68,-6.83 -24.76,-6.83 -9.15,0 -17.83,2.56 -25.11,7.03 -2.19,1.35 -3.41,2.43 -3.41,3.81 0,4.09 9.54,8.48 26.46,8.48 16.75,0 29.74,-4.81 29.74,-9.44 0,-1.1 -0.96,-1.88 -2.92,-3.04l0 0zm7.21 5.38c0.2,0.32 0.3,0.66 0.3,1.11 0,5.38 -16.45,14.9 -42.65,14.9 -19.25,0 -22.85,-7.15 -22.85,-11.69 0,-1.63 0.62,-3.29 1.99,-4.97 0.08,-0.1 0.01,-0.14 -0.07,-0.06 -2.5,2.11 -4.8,4.5 -6.81,7.08 -0.96,1.22 -1.56,2.3 -1.56,2.94 0,9.41 23.6,16.24 45.66,16.24 23.51,0 34,-7.68 34,-14.43 0,-2.41 -0.94,-3.82 -3.33,-6.55 -1.56,-1.78 -3.04,-3.22 -4.59,-4.64 -0.07,-0.06 -0.13,-0.01 -0.07,0.06l0 0zm-75.72 15.44c-1.42,2.81 -2.99,7.57 -3.46,10.03 -0.2,1.06 -0.11,1.56 0.26,2.35 2.97,6.3 17.99,16.39 53.03,16.39 21.37,0 37.98,-5.25 40.67,-14.84 0.5,-1.76 0.52,-3.63 -0.11,-6.14 -0.71,-2.8 -2.04,-6.07 -3.17,-8.37 -0.04,-0.08 -0.1,-0.07 -0.09,0.02 0.42,12.57 -34.64,20.68 -52.32,20.68 -19.16,0 -35.14,-7.64 -35.14,-17.28 0,-0.93 0.19,-1.85 0.43,-2.81 0.02,-0.09 -0.06,-0.1 -0.09,-0.02l0 0zm34.01 40.18c-24.78,0 -36.46,-11.54 -38.58,-19.42 -0.03,-0.12 -0.1,-0.09 -0.1,0.01 0,2.65 0.27,6.07 0.72,8.35 0.22,1.11 1.11,2.84 2.43,4.22 6,6.26 20.96,15.02 46.87,15.02 35.3,0 43.37,-11.76 45.01,-15.63 1.18,-2.77 1.79,-7.77 1.79,-11.96 0,-1.02 -0.03,-1.83 -0.06,-2.63 0,-0.13 -0.07,-0.14 -0.1,-0.02 -1.76,9.47 -31.92,22.05 -57.98,22.05l0 0zm13.02 21.3c11.91,0 25,-3.25 32.83,-9.68 2.14,-1.75 4.19,-4.08 6.01,-7.22 1.05,-1.8 2.08,-3.95 2.92,-6.06 0.04,-0.1 -0.02,-0.15 -0.1,-0.04 -7.28,10.72 -28.37,17.41 -50.14,17.41 -15.39,0 -31.94,-4.92 -38.43,-14.32 -0.06,-0.09 -0.13,-0.05 -0.09,0.05 6.04,12.84 24.36,19.85 47,19.85l0 0zm-32.97 -2.48c8.2,6.36 18.51,10.18 29.69,10.18 12.23,0 23.38,-4.54 31.89,-12 0.1,-0.09 0.05,-0.15 -0.05,-0.09 -3.82,2.55 -14.71,8.12 -31.85,8.12 -14.89,0 -24.31,-3.32 -29.63,-6.29 -0.1,-0.05 -0.14,0.03 -0.06,0.09z"/>
   </g>
  </g>
 </g>
</svg>
